<svg width="50" height="50" fill="none" xmlns="http://www.w3.org/2000/svg"><g clip-path="url(#clip0_513_2)"><path d="M49.678 27.227l-3.674-5.83a2.088 2.088 0 01-.274-1.555l1.459-6.735c.227-1.05-.38-2.1-1.402-2.429l-6.563-2.104a2.087 2.087 0 01-1.208-1.014l-3.212-6.097a2.086 2.086 0 00-2.635-.96l-6.38 2.607a2.09 2.09 0 01-1.578 0L17.83.504a2.087 2.087 0 00-2.635.96L11.984 7.56a2.087 2.087 0 01-1.209 1.014l-6.562 2.104a2.086 2.086 0 00-1.402 2.429l1.458 6.735a2.087 2.087 0 01-.274 1.554l-3.674 5.83a2.087 2.087 0 00.488 2.762l5.446 4.222c.432.335.715.826.79 1.367l.933 6.828a2.086 2.086 0 002.147 1.803l6.887-.267a2.09 2.09 0 011.483.54l5.103 4.63a2.09 2.09 0 002.805 0l5.103-4.63a2.078 2.078 0 011.483-.54l6.886.267a2.087 2.087 0 002.148-1.803l.933-6.828a2.089 2.089 0 01.79-1.367l5.446-4.222a2.087 2.087 0 00.486-2.761zm-30.46 6.1l-6.08-4.248 2.498 5.793-1.665.719-3.834-8.882 1.745-.754 6.196 4.363-2.56-5.931 1.665-.72 3.835 8.883-1.8.777zm3.696-1.596L19.08 22.85l6.586-2.843.648 1.503-4.793 2.068.85 1.97 4.46-1.926.645 1.497-4.46 1.924 1.044 2.418 4.962-2.142.646 1.497-6.755 2.916zm15.014-6.48l-4.635-5.877 1.103 7.401-1.945.84-5.954-7.967 1.836-.793 3.972 5.524-1.01-6.802 2.134-.92 4.235 5.532-1.315-6.793 1.806-.78 1.676 9.814-1.903.822z" fill="#EB4F28"/></g><defs><clipPath id="clip0_513_2"><path fill="#fff" d="M0 0h50v50H0z"/></clipPath></defs></svg>