<svg width="50" height="50" fill="none" xmlns="http://www.w3.org/2000/svg"><g clip-path="url(#clip0_528_2)" fill="#D80027"><path d="M19.051 20.862a2.32 2.32 0 002.317-2.317 2.32 2.32 0 00-2.317-2.317 2.32 2.32 0 00-2.317 2.317 2.32 2.32 0 002.317 2.317zm11.899 8.276a2.32 2.32 0 00-2.317 2.317 2.32 2.32 0 002.317 2.317 2.32 2.32 0 002.316-2.317 2.32 2.32 0 00-2.316-2.317z"/><path d="M47.173 28.513L50 25l-2.827-3.513 1.611-4.214-3.78-2.465.222-4.506-4.353-1.175-1.175-4.353-4.506.222-2.465-3.78-4.215 1.61L25 0l-3.512 2.827-4.215-1.611-2.465 3.78-4.506-.222-1.175 4.353-4.353 1.175.222 4.505-3.78 2.466 1.61 4.214L0 25l2.827 3.513-1.611 4.214 3.78 2.465-.222 4.506 4.353 1.175 1.175 4.353 4.506-.222 2.465 3.78 4.215-1.61L25 50l3.512-2.827 4.215 1.611 2.465-3.78 4.506.222 1.175-4.353 4.353-1.175-.222-4.505 3.78-2.466-1.61-4.214zM19.051 13.277a5.274 5.274 0 015.268 5.268 5.274 5.274 0 01-5.268 5.268 5.274 5.274 0 01-5.268-5.268 5.274 5.274 0 015.268-5.268zm-3.41 23.219l-2.086-2.087L34.04 13.923l2.087 2.086L15.64 36.496zm15.308.227a5.274 5.274 0 01-5.268-5.268 5.274 5.274 0 015.268-5.268 5.274 5.274 0 015.268 5.268 5.274 5.274 0 01-5.268 5.268z"/></g><defs><clipPath id="clip0_528_2"><path fill="#fff" d="M0 0h50v50H0z"/></clipPath></defs></svg>