<svg width="50" height="50" viewBox="0 0 50 50" fill="none" xmlns="http://www.w3.org/2000/svg">
<g clip-path="url(#clip0_513_2)">
<path d="M49.6784 27.2266L46.0042 21.3962C45.7131 20.934 45.6149 20.3758 45.7303 19.8422L47.189 13.1067C47.4164 12.0571 46.8091 11.0064 45.7867 10.6783L39.2244 8.57384C38.7043 8.40693 38.2702 8.0428 38.0156 7.55971L34.8036 1.46276C34.3033 0.512277 33.163 0.097492 32.1686 0.503372L25.7884 3.10973C25.2828 3.31578 24.7163 3.31578 24.2108 3.10973L17.8317 0.503863C16.8373 0.0979822 15.6969 0.512768 15.1961 1.46325L11.9841 7.55963C11.7296 8.04271 11.2955 8.40685 10.7754 8.57376L4.21318 10.6782C3.19015 11.0063 2.58345 12.0571 2.8109 13.1067L4.26898 19.8421C4.38483 20.3757 4.28622 20.934 3.99513 21.3962L0.321372 27.2266C-0.25142 28.1353 -0.0401463 29.33 0.808624 29.9884L6.255 34.2104C6.68694 34.5453 6.97019 35.0357 7.0443 35.5772L7.97762 42.405C8.12264 43.4693 9.05278 44.2492 10.1254 44.2075L17.0116 43.9409C17.5573 43.9195 18.0894 44.1136 18.4948 44.4803L23.5979 49.1107C24.3935 49.8322 25.6074 49.8322 26.4025 49.1107L31.5061 44.4803C31.9104 44.113 32.443 43.9195 32.9893 43.9409L39.8749 44.2075C40.9485 44.2492 41.8777 43.4688 42.0232 42.405L42.9565 35.5772C43.0306 35.0357 43.3139 34.5454 43.7453 34.2104L49.1917 29.9884C50.0404 29.33 50.2512 28.1353 49.6784 27.2266ZM19.2183 33.3267L13.1371 29.0791L15.6365 34.8719L13.9707 35.5908L10.1374 26.7086L11.8819 25.9552L18.078 30.318L15.5175 24.3865L17.1833 23.6671L21.0177 32.5498L19.2183 33.3267ZM22.9139 31.7313L19.0806 22.8491L25.6668 20.0059L26.3148 21.5088L21.5216 23.5773L22.3714 25.5461L26.8313 23.6211L27.4771 25.1179L23.0173 27.0424L24.0606 29.4598L29.0229 27.3184L29.6687 28.8151L22.9139 31.7313ZM37.9285 25.2515L33.2933 19.3737L34.3956 26.7754L32.4508 27.6148L26.4973 19.6481L28.3326 18.8552L32.3052 24.3787L31.2957 17.5771L33.4294 16.6563L37.6639 22.1888L36.3493 15.3959L38.1548 14.6165L39.831 24.4305L37.9285 25.2515Z" fill="#EB4F28"/>
</g>
<defs>
<clipPath id="clip0_513_2">
<rect width="50" height="50" fill="white"/>
</clipPath>
</defs>
</svg>
