<svg width="80" height="80" fill="none" xmlns="http://www.w3.org/2000/svg"><g clip-path="url(#clip0_513_2)"><path d="M79.485 43.563l-5.878-9.33a3.342 3.342 0 01-.439-2.486l2.334-10.776a3.339 3.339 0 00-2.243-3.886l-10.5-3.367a3.34 3.34 0 01-1.934-1.623l-5.14-9.755A3.338 3.338 0 0051.47.805l-10.21 4.17c-.808.33-1.715.33-2.524 0L28.531.807a3.34 3.34 0 00-4.217 1.535l-5.14 9.754a3.34 3.34 0 01-1.933 1.623l-10.5 3.367a3.338 3.338 0 00-2.244 3.886L6.83 31.747a3.338 3.338 0 01-.438 2.487L.514 43.562a3.34 3.34 0 00.78 4.42l8.714 6.755a3.34 3.34 0 011.263 2.186l1.493 10.925a3.338 3.338 0 003.437 2.884l11.018-.427a3.343 3.343 0 012.373.863l8.165 7.41a3.34 3.34 0 004.487 0l8.166-7.41a3.334 3.334 0 012.373-.863l11.017.427a3.339 3.339 0 003.437-2.884l1.494-10.925a3.341 3.341 0 011.262-2.186l8.714-6.756a3.339 3.339 0 00.778-4.419zm-48.736 9.76l-9.73-6.797 4 9.269-2.666 1.15-6.133-14.211 2.791-1.206 9.914 6.98-4.097-9.49 2.665-1.15 6.135 14.212-2.879 1.243zm5.913-2.553L30.53 36.558l10.538-4.549 1.037 2.405-7.67 3.31 1.36 3.15 7.136-3.08 1.033 2.395-7.135 3.079 1.669 3.868 7.94-3.427 1.033 2.395-10.808 4.666zm24.024-10.368l-7.417-9.404 1.764 11.843-3.112 1.343-9.525-12.747 2.936-1.269 6.356 8.838-1.615-10.883 3.414-1.473 6.775 8.852-2.103-10.869 2.889-1.247L63.73 39.09l-3.044 1.313z" fill="#EB4F28"/></g><defs><clipPath id="clip0_513_2"><path fill="#fff" d="M0 0h80v80H0z"/></clipPath></defs></svg>